<svg xmlns="http://www.w3.org/2000/svg" width="680" height="524" viewBox="0 0 680 524" role="img" aria-labelledby="ti de">
<title id="ti">Why a to-do list rots and EPS does not</title><desc id="de">Two lanes side by side. With a to-do list a task is parked somewhere and you build the list every single day, so missing a day leaves a backlog that becomes its own job. With EPS the task is entered once with its dates and EPS builds the list every day without you, so missing a day leaves no backlog.</desc>
<style>
text{font-family:-apple-system,BlinkMacSystemFont,'Segoe UI',Roboto,Helvetica,Arial,sans-serif;dominant-baseline:central}
.t{font-size:14px;font-weight:600}
.s{font-size:12px;font-weight:400}
.b{fill:none;stroke-width:1.5}
</style>
<defs><marker id="a" viewBox="0 0 10 10" refX="8" refY="5" markerWidth="6" markerHeight="6" orient="auto-start-reverse">
<path d="M2 1L8 5L2 9" fill="none" stroke="context-stroke" stroke-width="1.5" stroke-linecap="round" stroke-linejoin="round"/></marker></defs>
<text class="t" x="185" y="34" text-anchor="middle" fill="#F1EFE8">To-do list</text><text class="t" x="495" y="34" text-anchor="middle" fill="#F1EFE8">EPS</text><rect x="60" y="54" width="250" height="48" rx="4" fill="#444441" stroke="#B4B2A9" stroke-width="1.5"/><text class="t" x="185.0" y="78.0" text-anchor="middle" fill="#D3D1C7">A task occurs to you</text><rect x="370" y="54" width="250" height="48" rx="4" fill="#444441" stroke="#B4B2A9" stroke-width="1.5"/><text class="t" x="495.0" y="78.0" text-anchor="middle" fill="#D3D1C7">A task occurs to you</text><line x1="185" y1="112" x2="185" y2="152" stroke="#B4B2A9" stroke-width="1.5" marker-end="url(#a)"/><line x1="495" y1="112" x2="495" y2="152" stroke="#B4B2A9" stroke-width="1.5" marker-end="url(#a)"/><rect x="60" y="162" width="250" height="56" rx="4" fill="#712B13" stroke="#F0997B" stroke-width="1.5"/><text class="t" x="185.0" y="180.0" text-anchor="middle" fill="#F5C4B3">Park it somewhere</text><text class="s" x="185.0" y="200.0" text-anchor="middle" fill="#F0997B">inbox, notes app, your head</text><rect x="370" y="162" width="250" height="56" rx="4" fill="#085041" stroke="#5DCAA5" stroke-width="1.5"/><text class="t" x="495.0" y="180.0" text-anchor="middle" fill="#9FE1CB">Enter it once</text><text class="s" x="495.0" y="200.0" text-anchor="middle" fill="#5DCAA5">with its dates</text><line x1="185" y1="228" x2="185" y2="268" stroke="#B4B2A9" stroke-width="1.5" marker-end="url(#a)"/><line x1="495" y1="228" x2="495" y2="268" stroke="#B4B2A9" stroke-width="1.5" marker-end="url(#a)"/><rect x="60" y="278" width="250" height="56" rx="4" fill="#712B13" stroke="#F0997B" stroke-width="1.5"/><text class="t" x="185.0" y="296.0" text-anchor="middle" fill="#F5C4B3">You build the list</text><text class="s" x="185.0" y="316.0" text-anchor="middle" fill="#F0997B">every single day</text><rect x="370" y="278" width="250" height="56" rx="4" fill="#085041" stroke="#5DCAA5" stroke-width="1.5"/><text class="t" x="495.0" y="296.0" text-anchor="middle" fill="#9FE1CB">EPS builds the list</text><text class="s" x="495.0" y="316.0" text-anchor="middle" fill="#5DCAA5">every day, without you</text><line x1="185" y1="344" x2="185" y2="384" stroke="#B4B2A9" stroke-width="1.5" marker-end="url(#a)" stroke-dasharray="5 4"/><line x1="495" y1="344" x2="495" y2="384" stroke="#B4B2A9" stroke-width="1.5" marker-end="url(#a)" stroke-dasharray="5 4"/><rect x="60" y="394" width="250" height="84" rx="4" fill="#712B13" stroke="#F0997B" stroke-width="1.5"/><text class="t" x="185" y="416" text-anchor="middle" fill="#F5C4B3">If you miss a day</text><text class="s" x="185" y="440" text-anchor="middle" fill="#F0997B">The backlog becomes its own</text><text class="s" x="185" y="457" text-anchor="middle" fill="#F0997B">job, and it only gets harder.</text><rect x="370" y="394" width="250" height="84" rx="4" fill="#085041" stroke="#5DCAA5" stroke-width="1.5"/><text class="t" x="495" y="416" text-anchor="middle" fill="#9FE1CB">If you miss a day</text><text class="s" x="495" y="440" text-anchor="middle" fill="#5DCAA5">There is no backlog. You enter</text><text class="s" x="495" y="457" text-anchor="middle" fill="#5DCAA5">tasks, not lists, so carry on.</text></svg>